<?xml version="1.0" encoding="utf-8" standalone="no"?>
<!DOCTYPE svg PUBLIC "-//W3C//DTD SVG 1.1//EN"
  "http://www.w3.org/Graphics/SVG/1.1/DTD/svg11.dtd">
<!-- Created with matplotlib (https://matplotlib.org/) -->
<svg height="342.72pt" version="1.1" viewBox="0 0 460.8 342.72" width="460.8pt" xmlns="http://www.w3.org/2000/svg" xmlns:xlink="http://www.w3.org/1999/xlink">
 <defs>
  <style type="text/css">
*{stroke-linecap:butt;stroke-linejoin:round;}
  </style>
 </defs>
 <g id="figure_1">
  <g id="patch_1">
   <path d="M 0 342.72 
L 460.8 342.72 
L 460.8 0 
L 0 0 
z
" style="fill:#ffffff;"/>
  </g>
  <g id="axes_1">
   <g id="patch_2">
    <path d="M 57.6 305.0208 
L 414.72 305.0208 
L 414.72 41.1264 
L 57.6 41.1264 
z
" style="fill:#ffffff;"/>
   </g>
   <g id="PathCollection_1">
    <defs>
     <path d="M 0 1.581139 
C 0.419323 1.581139 0.821528 1.41454 1.118034 1.118034 
C 1.41454 0.821528 1.581139 0.419323 1.581139 0 
C 1.581139 -0.419323 1.41454 -0.821528 1.118034 -1.118034 
C 0.821528 -1.41454 0.419323 -1.581139 0 -1.581139 
C -0.419323 -1.581139 -0.821528 -1.41454 -1.118034 -1.118034 
C -1.41454 -0.821528 -1.581139 -0.419323 -1.581139 0 
C -1.581139 0.419323 -1.41454 0.821528 -1.118034 1.118034 
C -0.821528 1.41454 -0.419323 1.581139 0 1.581139 
z
" id="mf493cf2b51" style="stroke:#1f77b4;"/>
    </defs>
    <g clip-path="url(#p1b19019b13)">
     <use style="fill:#1f77b4;stroke:#1f77b4;" x="73.848648" xlink:href="#mf493cf2b51" y="292.18832"/>
     <use style="fill:#1f77b4;stroke:#1f77b4;" x="78.842843" xlink:href="#mf493cf2b51" y="292.064279"/>
     <use style="fill:#1f77b4;stroke:#1f77b4;" x="83.837039" xlink:href="#mf493cf2b51" y="291.94799"/>
     <use style="fill:#1f77b4;stroke:#1f77b4;" x="88.831234" xlink:href="#mf493cf2b51" y="291.761927"/>
     <use style="fill:#1f77b4;stroke:#1f77b4;" x="93.825429" xlink:href="#mf493cf2b51" y="291.56036"/>
     <use style="fill:#1f77b4;stroke:#1f77b4;" x="98.819625" xlink:href="#mf493cf2b51" y="291.358793"/>
     <use style="fill:#1f77b4;stroke:#1f77b4;" x="103.81382" xlink:href="#mf493cf2b51" y="291.064194"/>
     <use style="fill:#1f77b4;stroke:#1f77b4;" x="108.808016" xlink:href="#mf493cf2b51" y="290.730833"/>
     <use style="fill:#1f77b4;stroke:#1f77b4;" x="113.802211" xlink:href="#mf493cf2b51" y="290.374213"/>
     <use style="fill:#1f77b4;stroke:#1f77b4;" x="118.796407" xlink:href="#mf493cf2b51" y="290.025347"/>
     <use style="fill:#1f77b4;stroke:#1f77b4;" x="123.790602" xlink:href="#mf493cf2b51" y="289.575696"/>
     <use style="fill:#1f77b4;stroke:#1f77b4;" x="128.784798" xlink:href="#mf493cf2b51" y="289.079531"/>
     <use style="fill:#1f77b4;stroke:#1f77b4;" x="133.778993" xlink:href="#mf493cf2b51" y="288.567859"/>
     <use style="fill:#1f77b4;stroke:#1f77b4;" x="138.773189" xlink:href="#mf493cf2b51" y="288.00192"/>
     <use style="fill:#1f77b4;stroke:#1f77b4;" x="143.767384" xlink:href="#mf493cf2b51" y="287.435981"/>
     <use style="fill:#1f77b4;stroke:#1f77b4;" x="148.76158" xlink:href="#mf493cf2b51" y="286.769258"/>
     <use style="fill:#1f77b4;stroke:#1f77b4;" x="153.755775" xlink:href="#mf493cf2b51" y="286.079277"/>
     <use style="fill:#1f77b4;stroke:#1f77b4;" x="158.74997" xlink:href="#mf493cf2b51" y="285.327276"/>
     <use style="fill:#1f77b4;stroke:#1f77b4;" x="163.744166" xlink:href="#mf493cf2b51" y="284.489996"/>
     <use style="fill:#1f77b4;stroke:#1f77b4;" x="168.738361" xlink:href="#mf493cf2b51" y="283.737994"/>
     <use style="fill:#1f77b4;stroke:#1f77b4;" x="173.732557" xlink:href="#mf493cf2b51" y="282.606116"/>
     <use style="fill:#1f77b4;stroke:#1f77b4;" x="178.726752" xlink:href="#mf493cf2b51" y="281.6603"/>
     <use style="fill:#1f77b4;stroke:#1f77b4;" x="183.720948" xlink:href="#mf493cf2b51" y="280.551679"/>
     <use style="fill:#1f77b4;stroke:#1f77b4;" x="188.715143" xlink:href="#mf493cf2b51" y="279.443058"/>
     <use style="fill:#1f77b4;stroke:#1f77b4;" x="193.709339" xlink:href="#mf493cf2b51" y="278.621284"/>
     <use style="fill:#1f77b4;stroke:#1f77b4;" x="198.703534" xlink:href="#mf493cf2b51" y="277.86153"/>
     <use style="fill:#1f77b4;stroke:#1f77b4;" x="203.69773" xlink:href="#mf493cf2b51" y="276.807177"/>
     <use style="fill:#1f77b4;stroke:#1f77b4;" x="208.691925" xlink:href="#mf493cf2b51" y="275.900124"/>
     <use style="fill:#1f77b4;stroke:#1f77b4;" x="213.68612" xlink:href="#mf493cf2b51" y="274.96206"/>
     <use style="fill:#1f77b4;stroke:#1f77b4;" x="218.680316" xlink:href="#mf493cf2b51" y="274.086017"/>
     <use style="fill:#1f77b4;stroke:#1f77b4;" x="223.674511" xlink:href="#mf493cf2b51" y="273.310758"/>
     <use style="fill:#1f77b4;stroke:#1f77b4;" x="228.668707" xlink:href="#mf493cf2b51" y="272.085848"/>
     <use style="fill:#1f77b4;stroke:#1f77b4;" x="233.662902" xlink:href="#mf493cf2b51" y="271.457888"/>
     <use style="fill:#1f77b4;stroke:#1f77b4;" x="238.657098" xlink:href="#mf493cf2b51" y="270.961722"/>
     <use style="fill:#1f77b4;stroke:#1f77b4;" x="243.651293" xlink:href="#mf493cf2b51" y="270.674877"/>
     <use style="fill:#1f77b4;stroke:#1f77b4;" x="248.645489" xlink:href="#mf493cf2b51" y="270.225226"/>
     <use style="fill:#1f77b4;stroke:#1f77b4;" x="253.639684" xlink:href="#mf493cf2b51" y="269.721308"/>
     <use style="fill:#1f77b4;stroke:#1f77b4;" x="258.63388" xlink:href="#mf493cf2b51" y="269.302668"/>
     <use style="fill:#1f77b4;stroke:#1f77b4;" x="263.628075" xlink:href="#mf493cf2b51" y="268.736729"/>
     <use style="fill:#1f77b4;stroke:#1f77b4;" x="268.62227" xlink:href="#mf493cf2b51" y="268.217305"/>
     <use style="fill:#1f77b4;stroke:#1f77b4;" x="273.616466" xlink:href="#mf493cf2b51" y="267.558334"/>
     <use style="fill:#1f77b4;stroke:#1f77b4;" x="278.610661" xlink:href="#mf493cf2b51" y="266.914869"/>
     <use style="fill:#1f77b4;stroke:#1f77b4;" x="283.604857" xlink:href="#mf493cf2b51" y="266.124105"/>
     <use style="fill:#1f77b4;stroke:#1f77b4;" x="288.599052" xlink:href="#mf493cf2b51" y="265.294578"/>
     <use style="fill:#1f77b4;stroke:#1f77b4;" x="293.593248" xlink:href="#mf493cf2b51" y="264.480555"/>
     <use style="fill:#1f77b4;stroke:#1f77b4;" x="298.587443" xlink:href="#mf493cf2b51" y="262.712964"/>
     <use style="fill:#1f77b4;stroke:#1f77b4;" x="303.581639" xlink:href="#mf493cf2b51" y="261.177951"/>
     <use style="fill:#1f77b4;stroke:#1f77b4;" x="308.575834" xlink:href="#mf493cf2b51" y="259.076999"/>
     <use style="fill:#1f77b4;stroke:#1f77b4;" x="313.57003" xlink:href="#mf493cf2b51" y="256.503138"/>
     <use style="fill:#1f77b4;stroke:#1f77b4;" x="318.564225" xlink:href="#mf493cf2b51" y="253.766473"/>
     <use style="fill:#1f77b4;stroke:#1f77b4;" x="323.55842" xlink:href="#mf493cf2b51" y="250.301064"/>
     <use style="fill:#1f77b4;stroke:#1f77b4;" x="328.552616" xlink:href="#mf493cf2b51" y="247.161264"/>
     <use style="fill:#1f77b4;stroke:#1f77b4;" x="333.546811" xlink:href="#mf493cf2b51" y="241.835233"/>
     <use style="fill:#1f77b4;stroke:#1f77b4;" x="338.541007" xlink:href="#mf493cf2b51" y="236.858069"/>
     <use style="fill:#1f77b4;stroke:#1f77b4;" x="343.535202" xlink:href="#mf493cf2b51" y="230.524201"/>
     <use style="fill:#1f77b4;stroke:#1f77b4;" x="348.529398" xlink:href="#mf493cf2b51" y="222.988682"/>
     <use style="fill:#1f77b4;stroke:#1f77b4;" x="353.523593" xlink:href="#mf493cf2b51" y="214.623635"/>
     <use style="fill:#1f77b4;stroke:#1f77b4;" x="358.517789" xlink:href="#mf493cf2b51" y="204.11112"/>
     <use style="fill:#1f77b4;stroke:#1f77b4;" x="363.511984" xlink:href="#mf493cf2b51" y="191.513157"/>
     <use style="fill:#1f77b4;stroke:#1f77b4;" x="368.50618" xlink:href="#mf493cf2b51" y="178.884184"/>
     <use style="fill:#1f77b4;stroke:#1f77b4;" x="373.500375" xlink:href="#mf493cf2b51" y="164.363579"/>
     <use style="fill:#1f77b4;stroke:#1f77b4;" x="378.494571" xlink:href="#mf493cf2b51" y="145.904657"/>
     <use style="fill:#1f77b4;stroke:#1f77b4;" x="383.488766" xlink:href="#mf493cf2b51" y="127.391467"/>
     <use style="fill:#1f77b4;stroke:#1f77b4;" x="388.482961" xlink:href="#mf493cf2b51" y="105.753982"/>
     <use style="fill:#1f77b4;stroke:#1f77b4;" x="393.477157" xlink:href="#mf493cf2b51" y="80.395253"/>
     <use style="fill:#1f77b4;stroke:#1f77b4;" x="398.471352" xlink:href="#mf493cf2b51" y="53.121633"/>
    </g>
   </g>
   <g id="matplotlib.axis_1">
    <g id="xtick_1">
     <g id="line2d_1">
      <defs>
       <path d="M 0 0 
L 0 3.5 
" id="m044019e8a6" style="stroke:#000000;stroke-width:0.8;"/>
      </defs>
      <g>
       <use style="stroke:#000000;stroke-width:0.8;" x="73.848648" xlink:href="#m044019e8a6" y="305.0208"/>
      </g>
     </g>
     <g id="text_1">
      <!-- 0 -->
      <defs>
       <path d="M 31.78125 66.40625 
Q 24.171875 66.40625 20.328125 58.90625 
Q 16.5 51.421875 16.5 36.375 
Q 16.5 21.390625 20.328125 13.890625 
Q 24.171875 6.390625 31.78125 6.390625 
Q 39.453125 6.390625 43.28125 13.890625 
Q 47.125 21.390625 47.125 36.375 
Q 47.125 51.421875 43.28125 58.90625 
Q 39.453125 66.40625 31.78125 66.40625 
z
M 31.78125 74.21875 
Q 44.046875 74.21875 50.515625 64.515625 
Q 56.984375 54.828125 56.984375 36.375 
Q 56.984375 17.96875 50.515625 8.265625 
Q 44.046875 -1.421875 31.78125 -1.421875 
Q 19.53125 -1.421875 13.0625 8.265625 
Q 6.59375 17.96875 6.59375 36.375 
Q 6.59375 54.828125 13.0625 64.515625 
Q 19.53125 74.21875 31.78125 74.21875 
z
" id="DejaVuSans-48"/>
      </defs>
      <g transform="translate(70.667398 319.619237)scale(0.1 -0.1)">
       <use xlink:href="#DejaVuSans-48"/>
      </g>
     </g>
    </g>
    <g id="xtick_2">
     <g id="line2d_2">
      <g>
       <use style="stroke:#000000;stroke-width:0.8;" x="123.790602" xlink:href="#m044019e8a6" y="305.0208"/>
      </g>
     </g>
     <g id="text_2">
      <!-- 10 -->
      <defs>
       <path d="M 12.40625 8.296875 
L 28.515625 8.296875 
L 28.515625 63.921875 
L 10.984375 60.40625 
L 10.984375 69.390625 
L 28.421875 72.90625 
L 38.28125 72.90625 
L 38.28125 8.296875 
L 54.390625 8.296875 
L 54.390625 0 
L 12.40625 0 
z
" id="DejaVuSans-49"/>
      </defs>
      <g transform="translate(117.428102 319.619237)scale(0.1 -0.1)">
       <use xlink:href="#DejaVuSans-49"/>
       <use x="63.623047" xlink:href="#DejaVuSans-48"/>
      </g>
     </g>
    </g>
    <g id="xtick_3">
     <g id="line2d_3">
      <g>
       <use style="stroke:#000000;stroke-width:0.8;" x="173.732557" xlink:href="#m044019e8a6" y="305.0208"/>
      </g>
     </g>
     <g id="text_3">
      <!-- 20 -->
      <defs>
       <path d="M 19.1875 8.296875 
L 53.609375 8.296875 
L 53.609375 0 
L 7.328125 0 
L 7.328125 8.296875 
Q 12.9375 14.109375 22.625 23.890625 
Q 32.328125 33.6875 34.8125 36.53125 
Q 39.546875 41.84375 41.421875 45.53125 
Q 43.3125 49.21875 43.3125 52.78125 
Q 43.3125 58.59375 39.234375 62.25 
Q 35.15625 65.921875 28.609375 65.921875 
Q 23.96875 65.921875 18.8125 64.3125 
Q 13.671875 62.703125 7.8125 59.421875 
L 7.8125 69.390625 
Q 13.765625 71.78125 18.9375 73 
Q 24.125 74.21875 28.421875 74.21875 
Q 39.75 74.21875 46.484375 68.546875 
Q 53.21875 62.890625 53.21875 53.421875 
Q 53.21875 48.921875 51.53125 44.890625 
Q 49.859375 40.875 45.40625 35.40625 
Q 44.1875 33.984375 37.640625 27.21875 
Q 31.109375 20.453125 19.1875 8.296875 
z
" id="DejaVuSans-50"/>
      </defs>
      <g transform="translate(167.370057 319.619237)scale(0.1 -0.1)">
       <use xlink:href="#DejaVuSans-50"/>
       <use x="63.623047" xlink:href="#DejaVuSans-48"/>
      </g>
     </g>
    </g>
    <g id="xtick_4">
     <g id="line2d_4">
      <g>
       <use style="stroke:#000000;stroke-width:0.8;" x="223.674511" xlink:href="#m044019e8a6" y="305.0208"/>
      </g>
     </g>
     <g id="text_4">
      <!-- 30 -->
      <defs>
       <path d="M 40.578125 39.3125 
Q 47.65625 37.796875 51.625 33 
Q 55.609375 28.21875 55.609375 21.1875 
Q 55.609375 10.40625 48.1875 4.484375 
Q 40.765625 -1.421875 27.09375 -1.421875 
Q 22.515625 -1.421875 17.65625 -0.515625 
Q 12.796875 0.390625 7.625 2.203125 
L 7.625 11.71875 
Q 11.71875 9.328125 16.59375 8.109375 
Q 21.484375 6.890625 26.8125 6.890625 
Q 36.078125 6.890625 40.9375 10.546875 
Q 45.796875 14.203125 45.796875 21.1875 
Q 45.796875 27.640625 41.28125 31.265625 
Q 36.765625 34.90625 28.71875 34.90625 
L 20.21875 34.90625 
L 20.21875 43.015625 
L 29.109375 43.015625 
Q 36.375 43.015625 40.234375 45.921875 
Q 44.09375 48.828125 44.09375 54.296875 
Q 44.09375 59.90625 40.109375 62.90625 
Q 36.140625 65.921875 28.71875 65.921875 
Q 24.65625 65.921875 20.015625 65.03125 
Q 15.375 64.15625 9.8125 62.3125 
L 9.8125 71.09375 
Q 15.4375 72.65625 20.34375 73.4375 
Q 25.25 74.21875 29.59375 74.21875 
Q 40.828125 74.21875 47.359375 69.109375 
Q 53.90625 64.015625 53.90625 55.328125 
Q 53.90625 49.265625 50.4375 45.09375 
Q 46.96875 40.921875 40.578125 39.3125 
z
" id="DejaVuSans-51"/>
      </defs>
      <g transform="translate(217.312011 319.619237)scale(0.1 -0.1)">
       <use xlink:href="#DejaVuSans-51"/>
       <use x="63.623047" xlink:href="#DejaVuSans-48"/>
      </g>
     </g>
    </g>
    <g id="xtick_5">
     <g id="line2d_5">
      <g>
       <use style="stroke:#000000;stroke-width:0.8;" x="273.616466" xlink:href="#m044019e8a6" y="305.0208"/>
      </g>
     </g>
     <g id="text_5">
      <!-- 40 -->
      <defs>
       <path d="M 37.796875 64.3125 
L 12.890625 25.390625 
L 37.796875 25.390625 
z
M 35.203125 72.90625 
L 47.609375 72.90625 
L 47.609375 25.390625 
L 58.015625 25.390625 
L 58.015625 17.1875 
L 47.609375 17.1875 
L 47.609375 0 
L 37.796875 0 
L 37.796875 17.1875 
L 4.890625 17.1875 
L 4.890625 26.703125 
z
" id="DejaVuSans-52"/>
      </defs>
      <g transform="translate(267.253966 319.619237)scale(0.1 -0.1)">
       <use xlink:href="#DejaVuSans-52"/>
       <use x="63.623047" xlink:href="#DejaVuSans-48"/>
      </g>
     </g>
    </g>
    <g id="xtick_6">
     <g id="line2d_6">
      <g>
       <use style="stroke:#000000;stroke-width:0.8;" x="323.55842" xlink:href="#m044019e8a6" y="305.0208"/>
      </g>
     </g>
     <g id="text_6">
      <!-- 50 -->
      <defs>
       <path d="M 10.796875 72.90625 
L 49.515625 72.90625 
L 49.515625 64.59375 
L 19.828125 64.59375 
L 19.828125 46.734375 
Q 21.96875 47.46875 24.109375 47.828125 
Q 26.265625 48.1875 28.421875 48.1875 
Q 40.625 48.1875 47.75 41.5 
Q 54.890625 34.8125 54.890625 23.390625 
Q 54.890625 11.625 47.5625 5.09375 
Q 40.234375 -1.421875 26.90625 -1.421875 
Q 22.3125 -1.421875 17.546875 -0.640625 
Q 12.796875 0.140625 7.71875 1.703125 
L 7.71875 11.625 
Q 12.109375 9.234375 16.796875 8.0625 
Q 21.484375 6.890625 26.703125 6.890625 
Q 35.15625 6.890625 40.078125 11.328125 
Q 45.015625 15.765625 45.015625 23.390625 
Q 45.015625 31 40.078125 35.4375 
Q 35.15625 39.890625 26.703125 39.890625 
Q 22.75 39.890625 18.8125 39.015625 
Q 14.890625 38.140625 10.796875 36.28125 
z
" id="DejaVuSans-53"/>
      </defs>
      <g transform="translate(317.19592 319.619237)scale(0.1 -0.1)">
       <use xlink:href="#DejaVuSans-53"/>
       <use x="63.623047" xlink:href="#DejaVuSans-48"/>
      </g>
     </g>
    </g>
    <g id="xtick_7">
     <g id="line2d_7">
      <g>
       <use style="stroke:#000000;stroke-width:0.8;" x="373.500375" xlink:href="#m044019e8a6" y="305.0208"/>
      </g>
     </g>
     <g id="text_7">
      <!-- 60 -->
      <defs>
       <path d="M 33.015625 40.375 
Q 26.375 40.375 22.484375 35.828125 
Q 18.609375 31.296875 18.609375 23.390625 
Q 18.609375 15.53125 22.484375 10.953125 
Q 26.375 6.390625 33.015625 6.390625 
Q 39.65625 6.390625 43.53125 10.953125 
Q 47.40625 15.53125 47.40625 23.390625 
Q 47.40625 31.296875 43.53125 35.828125 
Q 39.65625 40.375 33.015625 40.375 
z
M 52.59375 71.296875 
L 52.59375 62.3125 
Q 48.875 64.0625 45.09375 64.984375 
Q 41.3125 65.921875 37.59375 65.921875 
Q 27.828125 65.921875 22.671875 59.328125 
Q 17.53125 52.734375 16.796875 39.40625 
Q 19.671875 43.65625 24.015625 45.921875 
Q 28.375 48.1875 33.59375 48.1875 
Q 44.578125 48.1875 50.953125 41.515625 
Q 57.328125 34.859375 57.328125 23.390625 
Q 57.328125 12.15625 50.6875 5.359375 
Q 44.046875 -1.421875 33.015625 -1.421875 
Q 20.359375 -1.421875 13.671875 8.265625 
Q 6.984375 17.96875 6.984375 36.375 
Q 6.984375 53.65625 15.1875 63.9375 
Q 23.390625 74.21875 37.203125 74.21875 
Q 40.921875 74.21875 44.703125 73.484375 
Q 48.484375 72.75 52.59375 71.296875 
z
" id="DejaVuSans-54"/>
      </defs>
      <g transform="translate(367.137875 319.619237)scale(0.1 -0.1)">
       <use xlink:href="#DejaVuSans-54"/>
       <use x="63.623047" xlink:href="#DejaVuSans-48"/>
      </g>
     </g>
    </g>
    <g id="text_8">
     <!-- Day -->
     <defs>
      <path d="M 19.671875 64.796875 
L 19.671875 8.109375 
L 31.59375 8.109375 
Q 46.6875 8.109375 53.6875 14.9375 
Q 60.6875 21.78125 60.6875 36.53125 
Q 60.6875 51.171875 53.6875 57.984375 
Q 46.6875 64.796875 31.59375 64.796875 
z
M 9.8125 72.90625 
L 30.078125 72.90625 
Q 51.265625 72.90625 61.171875 64.09375 
Q 71.09375 55.28125 71.09375 36.53125 
Q 71.09375 17.671875 61.125 8.828125 
Q 51.171875 0 30.078125 0 
L 9.8125 0 
z
" id="DejaVuSans-68"/>
      <path d="M 34.28125 27.484375 
Q 23.390625 27.484375 19.1875 25 
Q 14.984375 22.515625 14.984375 16.5 
Q 14.984375 11.71875 18.140625 8.90625 
Q 21.296875 6.109375 26.703125 6.109375 
Q 34.1875 6.109375 38.703125 11.40625 
Q 43.21875 16.703125 43.21875 25.484375 
L 43.21875 27.484375 
z
M 52.203125 31.203125 
L 52.203125 0 
L 43.21875 0 
L 43.21875 8.296875 
Q 40.140625 3.328125 35.546875 0.953125 
Q 30.953125 -1.421875 24.3125 -1.421875 
Q 15.921875 -1.421875 10.953125 3.296875 
Q 6 8.015625 6 15.921875 
Q 6 25.140625 12.171875 29.828125 
Q 18.359375 34.515625 30.609375 34.515625 
L 43.21875 34.515625 
L 43.21875 35.40625 
Q 43.21875 41.609375 39.140625 45 
Q 35.0625 48.390625 27.6875 48.390625 
Q 23 48.390625 18.546875 47.265625 
Q 14.109375 46.140625 10.015625 43.890625 
L 10.015625 52.203125 
Q 14.9375 54.109375 19.578125 55.046875 
Q 24.21875 56 28.609375 56 
Q 40.484375 56 46.34375 49.84375 
Q 52.203125 43.703125 52.203125 31.203125 
z
" id="DejaVuSans-97"/>
      <path d="M 32.171875 -5.078125 
Q 28.375 -14.84375 24.75 -17.8125 
Q 21.140625 -20.796875 15.09375 -20.796875 
L 7.90625 -20.796875 
L 7.90625 -13.28125 
L 13.1875 -13.28125 
Q 16.890625 -13.28125 18.9375 -11.515625 
Q 21 -9.765625 23.484375 -3.21875 
L 25.09375 0.875 
L 2.984375 54.6875 
L 12.5 54.6875 
L 29.59375 11.921875 
L 46.6875 54.6875 
L 56.203125 54.6875 
z
" id="DejaVuSans-121"/>
     </defs>
     <g transform="translate(226.286563 333.297362)scale(0.1 -0.1)">
      <use xlink:href="#DejaVuSans-68"/>
      <use x="77.001953" xlink:href="#DejaVuSans-97"/>
      <use x="138.28125" xlink:href="#DejaVuSans-121"/>
     </g>
    </g>
   </g>
   <g id="matplotlib.axis_2">
    <g id="ytick_1">
     <g id="line2d_8">
      <defs>
       <path d="M 0 0 
L -3.5 0 
" id="m10ecee77bd" style="stroke:#000000;stroke-width:0.8;"/>
      </defs>
      <g>
       <use style="stroke:#000000;stroke-width:0.8;" x="57.6" xlink:href="#m10ecee77bd" y="292.382135"/>
      </g>
     </g>
     <g id="text_9">
      <!-- 0 -->
      <g transform="translate(44.2375 296.181354)scale(0.1 -0.1)">
       <use xlink:href="#DejaVuSans-48"/>
      </g>
     </g>
    </g>
    <g id="ytick_2">
     <g id="line2d_9">
      <g>
       <use style="stroke:#000000;stroke-width:0.8;" x="57.6" xlink:href="#m10ecee77bd" y="253.619174"/>
      </g>
     </g>
     <g id="text_10">
      <!-- 5000 -->
      <g transform="translate(25.15 257.418392)scale(0.1 -0.1)">
       <use xlink:href="#DejaVuSans-53"/>
       <use x="63.623047" xlink:href="#DejaVuSans-48"/>
       <use x="127.246094" xlink:href="#DejaVuSans-48"/>
       <use x="190.869141" xlink:href="#DejaVuSans-48"/>
      </g>
     </g>
    </g>
    <g id="ytick_3">
     <g id="line2d_10">
      <g>
       <use style="stroke:#000000;stroke-width:0.8;" x="57.6" xlink:href="#m10ecee77bd" y="214.856212"/>
      </g>
     </g>
     <g id="text_11">
      <!-- 10000 -->
      <g transform="translate(18.7875 218.655431)scale(0.1 -0.1)">
       <use xlink:href="#DejaVuSans-49"/>
       <use x="63.623047" xlink:href="#DejaVuSans-48"/>
       <use x="127.246094" xlink:href="#DejaVuSans-48"/>
       <use x="190.869141" xlink:href="#DejaVuSans-48"/>
       <use x="254.492188" xlink:href="#DejaVuSans-48"/>
      </g>
     </g>
    </g>
    <g id="ytick_4">
     <g id="line2d_11">
      <g>
       <use style="stroke:#000000;stroke-width:0.8;" x="57.6" xlink:href="#m10ecee77bd" y="176.093251"/>
      </g>
     </g>
     <g id="text_12">
      <!-- 15000 -->
      <g transform="translate(18.7875 179.89247)scale(0.1 -0.1)">
       <use xlink:href="#DejaVuSans-49"/>
       <use x="63.623047" xlink:href="#DejaVuSans-53"/>
       <use x="127.246094" xlink:href="#DejaVuSans-48"/>
       <use x="190.869141" xlink:href="#DejaVuSans-48"/>
       <use x="254.492188" xlink:href="#DejaVuSans-48"/>
      </g>
     </g>
    </g>
    <g id="ytick_5">
     <g id="line2d_12">
      <g>
       <use style="stroke:#000000;stroke-width:0.8;" x="57.6" xlink:href="#m10ecee77bd" y="137.33029"/>
      </g>
     </g>
     <g id="text_13">
      <!-- 20000 -->
      <g transform="translate(18.7875 141.129509)scale(0.1 -0.1)">
       <use xlink:href="#DejaVuSans-50"/>
       <use x="63.623047" xlink:href="#DejaVuSans-48"/>
       <use x="127.246094" xlink:href="#DejaVuSans-48"/>
       <use x="190.869141" xlink:href="#DejaVuSans-48"/>
       <use x="254.492188" xlink:href="#DejaVuSans-48"/>
      </g>
     </g>
    </g>
    <g id="ytick_6">
     <g id="line2d_13">
      <g>
       <use style="stroke:#000000;stroke-width:0.8;" x="57.6" xlink:href="#m10ecee77bd" y="98.567329"/>
      </g>
     </g>
     <g id="text_14">
      <!-- 25000 -->
      <g transform="translate(18.7875 102.366548)scale(0.1 -0.1)">
       <use xlink:href="#DejaVuSans-50"/>
       <use x="63.623047" xlink:href="#DejaVuSans-53"/>
       <use x="127.246094" xlink:href="#DejaVuSans-48"/>
       <use x="190.869141" xlink:href="#DejaVuSans-48"/>
       <use x="254.492188" xlink:href="#DejaVuSans-48"/>
      </g>
     </g>
    </g>
    <g id="ytick_7">
     <g id="line2d_14">
      <g>
       <use style="stroke:#000000;stroke-width:0.8;" x="57.6" xlink:href="#m10ecee77bd" y="59.804368"/>
      </g>
     </g>
     <g id="text_15">
      <!-- 30000 -->
      <g transform="translate(18.7875 63.603586)scale(0.1 -0.1)">
       <use xlink:href="#DejaVuSans-51"/>
       <use x="63.623047" xlink:href="#DejaVuSans-48"/>
       <use x="127.246094" xlink:href="#DejaVuSans-48"/>
       <use x="190.869141" xlink:href="#DejaVuSans-48"/>
       <use x="254.492188" xlink:href="#DejaVuSans-48"/>
      </g>
     </g>
    </g>
    <g id="text_16">
     <!-- Deaths -->
     <defs>
      <path d="M 56.203125 29.59375 
L 56.203125 25.203125 
L 14.890625 25.203125 
Q 15.484375 15.921875 20.484375 11.0625 
Q 25.484375 6.203125 34.421875 6.203125 
Q 39.59375 6.203125 44.453125 7.46875 
Q 49.3125 8.734375 54.109375 11.28125 
L 54.109375 2.78125 
Q 49.265625 0.734375 44.1875 -0.34375 
Q 39.109375 -1.421875 33.890625 -1.421875 
Q 20.796875 -1.421875 13.15625 6.1875 
Q 5.515625 13.8125 5.515625 26.8125 
Q 5.515625 40.234375 12.765625 48.109375 
Q 20.015625 56 32.328125 56 
Q 43.359375 56 49.78125 48.890625 
Q 56.203125 41.796875 56.203125 29.59375 
z
M 47.21875 32.234375 
Q 47.125 39.59375 43.09375 43.984375 
Q 39.0625 48.390625 32.421875 48.390625 
Q 24.90625 48.390625 20.390625 44.140625 
Q 15.875 39.890625 15.1875 32.171875 
z
" id="DejaVuSans-101"/>
      <path d="M 18.3125 70.21875 
L 18.3125 54.6875 
L 36.8125 54.6875 
L 36.8125 47.703125 
L 18.3125 47.703125 
L 18.3125 18.015625 
Q 18.3125 11.328125 20.140625 9.421875 
Q 21.96875 7.515625 27.59375 7.515625 
L 36.8125 7.515625 
L 36.8125 0 
L 27.59375 0 
Q 17.1875 0 13.234375 3.875 
Q 9.28125 7.765625 9.28125 18.015625 
L 9.28125 47.703125 
L 2.6875 47.703125 
L 2.6875 54.6875 
L 9.28125 54.6875 
L 9.28125 70.21875 
z
" id="DejaVuSans-116"/>
      <path d="M 54.890625 33.015625 
L 54.890625 0 
L 45.90625 0 
L 45.90625 32.71875 
Q 45.90625 40.484375 42.875 44.328125 
Q 39.84375 48.1875 33.796875 48.1875 
Q 26.515625 48.1875 22.3125 43.546875 
Q 18.109375 38.921875 18.109375 30.90625 
L 18.109375 0 
L 9.078125 0 
L 9.078125 75.984375 
L 18.109375 75.984375 
L 18.109375 46.1875 
Q 21.34375 51.125 25.703125 53.5625 
Q 30.078125 56 35.796875 56 
Q 45.21875 56 50.046875 50.171875 
Q 54.890625 44.34375 54.890625 33.015625 
z
" id="DejaVuSans-104"/>
      <path d="M 44.28125 53.078125 
L 44.28125 44.578125 
Q 40.484375 46.53125 36.375 47.5 
Q 32.28125 48.484375 27.875 48.484375 
Q 21.1875 48.484375 17.84375 46.4375 
Q 14.5 44.390625 14.5 40.28125 
Q 14.5 37.15625 16.890625 35.375 
Q 19.28125 33.59375 26.515625 31.984375 
L 29.59375 31.296875 
Q 39.15625 29.25 43.1875 25.515625 
Q 47.21875 21.78125 47.21875 15.09375 
Q 47.21875 7.46875 41.1875 3.015625 
Q 35.15625 -1.421875 24.609375 -1.421875 
Q 20.21875 -1.421875 15.453125 -0.5625 
Q 10.6875 0.296875 5.421875 2 
L 5.421875 11.28125 
Q 10.40625 8.6875 15.234375 7.390625 
Q 20.0625 6.109375 24.8125 6.109375 
Q 31.15625 6.109375 34.5625 8.28125 
Q 37.984375 10.453125 37.984375 14.40625 
Q 37.984375 18.0625 35.515625 20.015625 
Q 33.0625 21.96875 24.703125 23.78125 
L 21.578125 24.515625 
Q 13.234375 26.265625 9.515625 29.90625 
Q 5.8125 33.546875 5.8125 39.890625 
Q 5.8125 47.609375 11.28125 51.796875 
Q 16.75 56 26.8125 56 
Q 31.78125 56 36.171875 55.265625 
Q 40.578125 54.546875 44.28125 53.078125 
z
" id="DejaVuSans-115"/>
     </defs>
     <g transform="translate(12.707812 190.797819)rotate(-90)scale(0.1 -0.1)">
      <use xlink:href="#DejaVuSans-68"/>
      <use x="77.001953" xlink:href="#DejaVuSans-101"/>
      <use x="138.525391" xlink:href="#DejaVuSans-97"/>
      <use x="199.804688" xlink:href="#DejaVuSans-116"/>
      <use x="239.013672" xlink:href="#DejaVuSans-104"/>
      <use x="302.392578" xlink:href="#DejaVuSans-115"/>
     </g>
    </g>
   </g>
   <g id="line2d_15">
    <path clip-path="url(#p1b19019b13)" d="M 73.848648 293.0256 
L 78.842843 292.312362 
L 83.837039 291.792938 
L 88.831234 291.397556 
L 93.825429 291.102957 
L 98.819625 290.862627 
L 103.81382 290.653307 
L 108.808016 290.443987 
L 113.802211 290.219162 
L 118.796407 289.947821 
L 123.790602 289.637717 
L 128.784798 289.25784 
L 133.778993 288.80819 
L 138.773189 288.288766 
L 143.767384 287.699569 
L 148.76158 287.025094 
L 153.755775 286.288597 
L 158.74997 285.482328 
L 163.744166 284.62179 
L 168.738361 283.706984 
L 173.732557 282.745663 
L 178.726752 281.761083 
L 183.720948 280.745494 
L 188.715143 279.729904 
L 193.709339 278.706562 
L 198.703534 277.698725 
L 203.69773 276.706393 
L 208.691925 275.745072 
L 213.68612 274.822513 
L 218.680316 273.954223 
L 223.674511 273.124696 
L 228.668707 272.357189 
L 233.662902 271.651703 
L 238.657098 270.992733 
L 243.651293 270.395783 
L 248.645489 269.845349 
L 253.639684 269.325926 
L 258.63388 268.837512 
L 263.628075 268.356851 
L 268.62227 267.860686 
L 273.616466 267.333509 
L 278.610661 266.744312 
L 283.604857 266.054332 
L 288.599052 265.232557 
L 293.593248 264.22472 
L 298.587443 262.992058 
L 303.581639 261.464797 
L 308.575834 259.604175 
L 313.57003 257.324913 
L 318.564225 254.557237 
L 323.55842 251.21587 
L 328.552616 247.231038 
L 333.546811 242.486451 
L 338.541007 236.881327 
L 343.535202 230.322634 
L 348.529398 222.670825 
L 353.523593 213.809613 
L 358.517789 203.599449 
L 363.511984 191.893034 
L 368.50618 178.535318 
L 373.500375 163.371247 
L 378.494571 146.222513 
L 383.488766 126.895301 
L 388.482961 105.2113 
L 393.477157 80.953439 
L 398.471352 53.912398 
" style="fill:none;stroke:#bf00bf;stroke-linecap:square;stroke-width:1.5;"/>
   </g>
   <g id="patch_3">
    <path d="M 57.6 305.0208 
L 57.6 41.1264 
" style="fill:none;stroke:#000000;stroke-linecap:square;stroke-linejoin:miter;stroke-width:0.8;"/>
   </g>
   <g id="patch_4">
    <path d="M 414.72 305.0208 
L 414.72 41.1264 
" style="fill:none;stroke:#000000;stroke-linecap:square;stroke-linejoin:miter;stroke-width:0.8;"/>
   </g>
   <g id="patch_5">
    <path d="M 57.6 305.0208 
L 414.72 305.0208 
" style="fill:none;stroke:#000000;stroke-linecap:square;stroke-linejoin:miter;stroke-width:0.8;"/>
   </g>
   <g id="patch_6">
    <path d="M 57.6 41.1264 
L 414.72 41.1264 
" style="fill:none;stroke:#000000;stroke-linecap:square;stroke-linejoin:miter;stroke-width:0.8;"/>
   </g>
   <g id="text_17">
    <!-- Amount of Deaths in each day -->
    <defs>
     <path d="M 34.1875 63.1875 
L 20.796875 26.90625 
L 47.609375 26.90625 
z
M 28.609375 72.90625 
L 39.796875 72.90625 
L 67.578125 0 
L 57.328125 0 
L 50.6875 18.703125 
L 17.828125 18.703125 
L 11.1875 0 
L 0.78125 0 
z
" id="DejaVuSans-65"/>
     <path d="M 52 44.1875 
Q 55.375 50.25 60.0625 53.125 
Q 64.75 56 71.09375 56 
Q 79.640625 56 84.28125 50.015625 
Q 88.921875 44.046875 88.921875 33.015625 
L 88.921875 0 
L 79.890625 0 
L 79.890625 32.71875 
Q 79.890625 40.578125 77.09375 44.375 
Q 74.3125 48.1875 68.609375 48.1875 
Q 61.625 48.1875 57.5625 43.546875 
Q 53.515625 38.921875 53.515625 30.90625 
L 53.515625 0 
L 44.484375 0 
L 44.484375 32.71875 
Q 44.484375 40.625 41.703125 44.40625 
Q 38.921875 48.1875 33.109375 48.1875 
Q 26.21875 48.1875 22.15625 43.53125 
Q 18.109375 38.875 18.109375 30.90625 
L 18.109375 0 
L 9.078125 0 
L 9.078125 54.6875 
L 18.109375 54.6875 
L 18.109375 46.1875 
Q 21.1875 51.21875 25.484375 53.609375 
Q 29.78125 56 35.6875 56 
Q 41.65625 56 45.828125 52.96875 
Q 50 49.953125 52 44.1875 
z
" id="DejaVuSans-109"/>
     <path d="M 30.609375 48.390625 
Q 23.390625 48.390625 19.1875 42.75 
Q 14.984375 37.109375 14.984375 27.296875 
Q 14.984375 17.484375 19.15625 11.84375 
Q 23.34375 6.203125 30.609375 6.203125 
Q 37.796875 6.203125 41.984375 11.859375 
Q 46.1875 17.53125 46.1875 27.296875 
Q 46.1875 37.015625 41.984375 42.703125 
Q 37.796875 48.390625 30.609375 48.390625 
z
M 30.609375 56 
Q 42.328125 56 49.015625 48.375 
Q 55.71875 40.765625 55.71875 27.296875 
Q 55.71875 13.875 49.015625 6.21875 
Q 42.328125 -1.421875 30.609375 -1.421875 
Q 18.84375 -1.421875 12.171875 6.21875 
Q 5.515625 13.875 5.515625 27.296875 
Q 5.515625 40.765625 12.171875 48.375 
Q 18.84375 56 30.609375 56 
z
" id="DejaVuSans-111"/>
     <path d="M 8.5 21.578125 
L 8.5 54.6875 
L 17.484375 54.6875 
L 17.484375 21.921875 
Q 17.484375 14.15625 20.5 10.265625 
Q 23.53125 6.390625 29.59375 6.390625 
Q 36.859375 6.390625 41.078125 11.03125 
Q 45.3125 15.671875 45.3125 23.6875 
L 45.3125 54.6875 
L 54.296875 54.6875 
L 54.296875 0 
L 45.3125 0 
L 45.3125 8.40625 
Q 42.046875 3.421875 37.71875 1 
Q 33.40625 -1.421875 27.6875 -1.421875 
Q 18.265625 -1.421875 13.375 4.4375 
Q 8.5 10.296875 8.5 21.578125 
z
M 31.109375 56 
z
" id="DejaVuSans-117"/>
     <path d="M 54.890625 33.015625 
L 54.890625 0 
L 45.90625 0 
L 45.90625 32.71875 
Q 45.90625 40.484375 42.875 44.328125 
Q 39.84375 48.1875 33.796875 48.1875 
Q 26.515625 48.1875 22.3125 43.546875 
Q 18.109375 38.921875 18.109375 30.90625 
L 18.109375 0 
L 9.078125 0 
L 9.078125 54.6875 
L 18.109375 54.6875 
L 18.109375 46.1875 
Q 21.34375 51.125 25.703125 53.5625 
Q 30.078125 56 35.796875 56 
Q 45.21875 56 50.046875 50.171875 
Q 54.890625 44.34375 54.890625 33.015625 
z
" id="DejaVuSans-110"/>
     <path id="DejaVuSans-32"/>
     <path d="M 37.109375 75.984375 
L 37.109375 68.5 
L 28.515625 68.5 
Q 23.6875 68.5 21.796875 66.546875 
Q 19.921875 64.59375 19.921875 59.515625 
L 19.921875 54.6875 
L 34.71875 54.6875 
L 34.71875 47.703125 
L 19.921875 47.703125 
L 19.921875 0 
L 10.890625 0 
L 10.890625 47.703125 
L 2.296875 47.703125 
L 2.296875 54.6875 
L 10.890625 54.6875 
L 10.890625 58.5 
Q 10.890625 67.625 15.140625 71.796875 
Q 19.390625 75.984375 28.609375 75.984375 
z
" id="DejaVuSans-102"/>
     <path d="M 9.421875 54.6875 
L 18.40625 54.6875 
L 18.40625 0 
L 9.421875 0 
z
M 9.421875 75.984375 
L 18.40625 75.984375 
L 18.40625 64.59375 
L 9.421875 64.59375 
z
" id="DejaVuSans-105"/>
     <path d="M 48.78125 52.59375 
L 48.78125 44.1875 
Q 44.96875 46.296875 41.140625 47.34375 
Q 37.3125 48.390625 33.40625 48.390625 
Q 24.65625 48.390625 19.8125 42.84375 
Q 14.984375 37.3125 14.984375 27.296875 
Q 14.984375 17.28125 19.8125 11.734375 
Q 24.65625 6.203125 33.40625 6.203125 
Q 37.3125 6.203125 41.140625 7.25 
Q 44.96875 8.296875 48.78125 10.40625 
L 48.78125 2.09375 
Q 45.015625 0.34375 40.984375 -0.53125 
Q 36.96875 -1.421875 32.421875 -1.421875 
Q 20.0625 -1.421875 12.78125 6.34375 
Q 5.515625 14.109375 5.515625 27.296875 
Q 5.515625 40.671875 12.859375 48.328125 
Q 20.21875 56 33.015625 56 
Q 37.15625 56 41.109375 55.140625 
Q 45.0625 54.296875 48.78125 52.59375 
z
" id="DejaVuSans-99"/>
     <path d="M 45.40625 46.390625 
L 45.40625 75.984375 
L 54.390625 75.984375 
L 54.390625 0 
L 45.40625 0 
L 45.40625 8.203125 
Q 42.578125 3.328125 38.25 0.953125 
Q 33.9375 -1.421875 27.875 -1.421875 
Q 17.96875 -1.421875 11.734375 6.484375 
Q 5.515625 14.40625 5.515625 27.296875 
Q 5.515625 40.1875 11.734375 48.09375 
Q 17.96875 56 27.875 56 
Q 33.9375 56 38.25 53.625 
Q 42.578125 51.265625 45.40625 46.390625 
z
M 14.796875 27.296875 
Q 14.796875 17.390625 18.875 11.75 
Q 22.953125 6.109375 30.078125 6.109375 
Q 37.203125 6.109375 41.296875 11.75 
Q 45.40625 17.390625 45.40625 27.296875 
Q 45.40625 37.203125 41.296875 42.84375 
Q 37.203125 48.484375 30.078125 48.484375 
Q 22.953125 48.484375 18.875 42.84375 
Q 14.796875 37.203125 14.796875 27.296875 
z
" id="DejaVuSans-100"/>
    </defs>
    <g transform="translate(145.019063 35.1264)scale(0.12 -0.12)">
     <use xlink:href="#DejaVuSans-65"/>
     <use x="68.408203" xlink:href="#DejaVuSans-109"/>
     <use x="165.820312" xlink:href="#DejaVuSans-111"/>
     <use x="227.001953" xlink:href="#DejaVuSans-117"/>
     <use x="290.380859" xlink:href="#DejaVuSans-110"/>
     <use x="353.759766" xlink:href="#DejaVuSans-116"/>
     <use x="392.96875" xlink:href="#DejaVuSans-32"/>
     <use x="424.755859" xlink:href="#DejaVuSans-111"/>
     <use x="485.9375" xlink:href="#DejaVuSans-102"/>
     <use x="521.142578" xlink:href="#DejaVuSans-32"/>
     <use x="552.929688" xlink:href="#DejaVuSans-68"/>
     <use x="629.931641" xlink:href="#DejaVuSans-101"/>
     <use x="691.455078" xlink:href="#DejaVuSans-97"/>
     <use x="752.734375" xlink:href="#DejaVuSans-116"/>
     <use x="791.943359" xlink:href="#DejaVuSans-104"/>
     <use x="855.322266" xlink:href="#DejaVuSans-115"/>
     <use x="907.421875" xlink:href="#DejaVuSans-32"/>
     <use x="939.208984" xlink:href="#DejaVuSans-105"/>
     <use x="966.992188" xlink:href="#DejaVuSans-110"/>
     <use x="1030.371094" xlink:href="#DejaVuSans-32"/>
     <use x="1062.158203" xlink:href="#DejaVuSans-101"/>
     <use x="1123.681641" xlink:href="#DejaVuSans-97"/>
     <use x="1184.960938" xlink:href="#DejaVuSans-99"/>
     <use x="1239.941406" xlink:href="#DejaVuSans-104"/>
     <use x="1303.320312" xlink:href="#DejaVuSans-32"/>
     <use x="1335.107422" xlink:href="#DejaVuSans-100"/>
     <use x="1398.583984" xlink:href="#DejaVuSans-97"/>
     <use x="1459.863281" xlink:href="#DejaVuSans-121"/>
    </g>
   </g>
  </g>
 </g>
 <defs>
  <clipPath id="p1b19019b13">
   <rect height="263.8944" width="357.12" x="57.6" y="41.1264"/>
  </clipPath>
 </defs>
</svg>
